{
.appVersion = "3512";
.formatVersion = 3;
DisplayStrings = (
"сдл",
"сдж",
"/uni192A1922"
);
axes = (
{
name = Weight;
tag = wght;
}
);
classes = (
{
code = "uni1921
uni1923
uni1924
uni1925
uni1926
uni1929
uni192B
";
name = SpacingMarks;
}
);
customParameters = (
{
name = glyphOrder;
value = (
.notdef,
NULL,
CR,
space,
uni00A0,
uni1903,
uni1904,
uni1905,
uni1906,
uni1907,
uni1908,
uni1909,
uni190A,
uni190B,
uni190C,
uni190D,
uni190E,
uni190F,
uni1910,
uni1911,
uni1912,
uni1913,
uni1914,
uni1915,
uni1916,
uni1917,
uni1918,
uni1919,
uni191A,
uni191B,
uni191C,
uni191D,
uni191E,
uni1920,
uni1921,
uni1922,
uni1923,
uni1924,
uni1925,
uni1926,
uni1927,
uni1928,
uni1929,
uni192A,
uni192B,
uni1930,
uni1931,
uni1932,
uni1933,
uni1934,
uni1935,
uni1936,
uni1937,
uni1938,
uni1939,
uni193A,
uni193B,
uni1940,
uni1944,
uni1945,
uni1946,
uni1947,
uni1948,
uni1949,
uni194A,
uni194B,
uni194C,
uni194D,
uni194E,
uni194F,
doubledanda,
uni1902,
uni1900,
uni1901,
uni192A1922,
uni200B,
uni200C,
uni200D,
uni25CC
);
},
{
name = unicodeRanges;
value = (
0,
1,
15,
31,
45,
93
);
},
{
name = "Has WWS Names";
value = 1;
},
{
name = fsType;
value = (
);
},
{
name = codePageRanges;
value = (
1252
);
},
{
name = "Don't use Production Names";
value = 1;
},
{
name = "Use Typo Metrics";
value = 1;
}
);
date = "2021-12-16 18:45:09 +0000";
familyName = "Noto Sans Limbu";
featurePrefixes = (
{
code = "languagesystem DFLT dflt;
languagesystem limb dflt;
";
name = Languagesystems;
}
);
features = (
{
code = "sub uni192A uni1922 by uni192A1922;
sub uni1925 by uni1920 uni1923;
sub uni1926 by uni1920 uni1924;";
tag = ccmp;
},
{
code = "# Automatic Code Start
";
tag = mark;
},
{
code = "# Automatic Code Start

# Khampreng should sit on top of spacing marks
";
tag = mkmk;
},
{
code = "# Automatic Code Start
# Although these are supposed to be spacing combining marks, Harfbuzz is
# zeroing their width, so I'm putting it back here. See issues #1 and #2

# Mild hack
ignore pos @SpacingMarks @SpacingMarks';


glyphs = (
{
glyphname = .notdef;
lastChange = "2021-02-27 04:55:41 +0000";
layers = (
{
layerId = UUID0;
shapes = (
{
closed = 1;
nodes = (
(505,0,l),
(505,714,l),
(94,714,l),
(94,0,l)
);
},
{
closed = 1;
nodes = (
(145,663,l),
(454,663,l),
(454,51,l),
(145,51,l)
);
}
);
width = 600;
}
);
},
{
glyphname = uni1903;
lastChange = "2021-02-27 04:55:41 +0000";
layers = (
{
anchors = (
{
name = Anchor2;
pos = (332,644);
},
{
name = Anchor3;
pos = (566,498);
},
{
name = Anchor4;
pos = (322,732);
},
{
name = Anchor6;
pos = (314,0);
}
);
layerId = UUID0;
shapes = (
{
closed = 1;
nodes = (
(441,-7,o),
(498,84,o),
(498,165,cs),
(498,217,o),
(475,291,o),
(360,331,c),
(429,392,o),
(505,469,o),
(556,576,c),
(495,576,l),
(443,479,o),
(368,407,o),
(299,346,c),
(259,354,o),
(211,358,o),
(155,358,cs),
(153,358,o),
(150,358,o),
(146,358,c),
(251,544,l),
(260,576,l),
(49,576,l),
(24,504,l),
(181,504,l),
(73,312,l),
(67,281,l),
(84,284,o),
(106,286,o),
(122,286,cs),
(161,286,o),
(194,284,o),
(224,281,c),
(165,229,o),
(123,182,o),
(123,127,cs),
(123,44,o),
(179,-7,o),
(303,-7,cs)
);
},
{
closed = 1;
nodes = (
(226,65,o),
(187,98,o),
(187,140,cs),
(187,182,o),
(230,221,o),
(289,271,c),
(399,245,o),
(416,194,o),
(416,165,cs),
(416,94,o),
(359,65,o),
(296,65,cs)
);
}
);
width = 595;
}
);
unicode = 6403;
},
{
glyphname = uni1904;
lastChange = "2021-02-27 04:55:41 +0000";
layers = (
{
anchors = (
{
name = Anchor2;
pos = (292,644);
},
{
name = Anchor3;
pos = (576,498);
},
{
name = Anchor4;
pos = (292,732);
},
{
name = Anchor6;
pos = (302,0);
}
);
layerId = UUID0;
shapes = (
{
closed = 1;
nodes = (
(529,20,l),
(529,576,l),
(49,576,l),
(24,504,l),
(104,504,l),
(104,346,ls),
(104,200,o),
(177,162,o),
(258,162,cs),
(342,162,o),
(408,210,o),
(449,252,c),
(449,-5,l)
);
},
{
closed = 1;
nodes = (
(243,234,o),
(184,239,o),
(184,366,cs),
(184,504,l),
(449,504,l),
(449,306,l),
(416,268,o),
(366,234,o),
(290,234,cs)
);
}
);
width = 602;
}
);
unicode = 6404;
},
{
glyphname = uni1905;
lastChange = "2021-02-27 04:55:41 +0000";
layers = (
{
anchors = (
{
name = Anchor2;
pos = (410,644);
},
{
name = Anchor3;
pos = (927,498);
},
{
name = Anchor4;
pos = (390,732);
},
{
name = Anchor6;
pos = (429,0);
}
);
layerId = UUID0;
shapes = (
{
closed = 1;
nodes = (
(601,-7,o),
(685,88,o),
(685,206,cs),
(685,326,o),
(553,373,o),
(438,373,c),
(616,542,l),
(623,576,l),
(194,576,l),
(169,504,l),
(512,504,l),
(355,354,l),
(351,321,l),
(379,322,o),
(389,324,o),
(402,324,cs),
(528,324,o),
(603,287,o),
(603,206,cs),
(603,85,o),
(493,65,o),
(406,65,cs),
(259,65,o),
(89,188,o),
(89,438,cs),
(89,480,o),
(91,499,o),
(95,517,c),
(46,531,l),
(42,507,o),
(39,477,o),
(39,433,cs),
(39,168,o),
(206,-7,o),
(420,-7,cs)
);
},
{
closed = 1;
nodes = (
(859,344,o),
(897,405,o),
(897,470,cs),
(897,536,o),
(854,583,o),
(783,583,cs),
(707,583,o),
(658,529,o),
(658,463,cs),
(658,398,o),
(708,344,o),
(780,344,cs)
);
},
{
closed = 1;
nodes = (
(747,404,o),
(721,428,o),
(721,465,cs),
(721,505,o),
(740,536,o),
(786,536,cs),
(820,536,o),
(847,515,o),
(847,475,cs),
(847,438,o),
(830,404,o),
(785,404,cs)
);
}
);
width = 927;
}
);
unicode = 6405;
},
{
glyphname = uni1906;
lastChange = "2021-02-27 04:55:41 +0000";
layers = (
{
anchors = (
{
name = Anchor2;
pos = (332,644);
},
{
name = Anchor3;
pos = (605,498);
},
{
name = Anchor4;
pos = (322,732);
},
{
name = Anchor6;
pos = (312,0);
}
);
layerId = UUID0;
shapes = (
{
closed = 1;
nodes = (
(281,42,o),
(385,186,o),
(385,332,cs),
(385,484,o),
(277,576,o),
(101,576,cs),
(49,576,l),
(24,504,l),
(93,504,ls),
(240,504,o),
(303,431,o),
(303,305,cs),
(303,255,o),
(297,185,o),
(250,139,c),
(250,143,o),
(252,155,o),
(252,159,cs),
(252,214,o),
(212,263,o),
(144,263,cs),
(81,263,o),
(29,211,o),
(29,152,cs),
(29,82,o),
(85,42,o),
(139,42,cs)
);
},
{
closed = 1;
nodes = (
(119,109,o),
(101,129,o),
(101,160,cs),
(101,183,o),
(118,210,o),
(150,210,cs),
(177,210,o),
(200,192,o),
(200,160,cs),
(200,127,o),
(175,109,o),
(151,109,cs)
);
},
{
closed = 1;
nodes = (
(554,20,l),
(554,581,l),
(474,557,l),
(474,-5,l)
);
}
);
width = 627;
}
);
unicode = 6406;
},
{
glyphname = uni1907;
lastChange = "2021-02-27 04:55:41 +0000";
layers = (
{
anchors = (
{
name = Anchor2;
pos = (361,644);
},
{
name = Anchor3;
pos = (634,498);
},
{
name = Anchor4;
pos = (322,732);
},
{
name = Anchor6;
pos = (314,0);
}
);
layerId = UUID0;
shapes = (
{
closed = 1;
nodes = (
(461,-7,o),
(570,100,o),
(603,146,c),
(575,171,l),
(480,83,o),
(396,65,o),
(306,65,cs),
(182,65,o),
(123,135,o),
(123,234,cs),
(123,261,o),
(126,288,o),
(135,313,c),
(327,313,l),
(248,212,l),
(245,192,l),
(446,192,l),
(488,264,l),
(347,264,l),
(426,366,l),
(428,386,l),
(171,386,l),
(202,429,o),
(250,469,o),
(317,504,c),
(576,504,l),
(601,576,l),
(63,576,l),
(39,504,l),
(230,504,l),
(101,434,o),
(39,326,o),
(39,226,cs),
(39,106,o),
(117,-7,o),
(308,-7,cs)
);
}
);
width = 632;
}
);
unicode = 6407;
},
{
glyphname = uni1908;
lastChange = "2021-02-27 04:55:41 +0000";
layers = (
{
anchors = (
{
name = Anchor2;
pos = (341,644);
},
{
name = Anchor3;
pos = (654,498);
},
{
name = Anchor4;
pos = (322,732);
},
{
name = Anchor6;
pos = (341,0);
}
);
layerId = UUID0;
shapes = (
{
closed = 1;
nodes = (
(602,20,l),
(602,576,l),
(49,576,l),
(24,504,l),
(522,504,l),
(522,-5,l)
);
},
{
closed = 1;
nodes = (
(362,92,o),
(457,149,o),
(457,270,cs),
(457,357,o),
(413,434,o),
(203,434,cs),
(73,434,l),
(49,362,l),
(176,362,ls),
(323,362,o),
(375,342,o),
(375,253,cs),
(375,203,o),
(352,140,o),
(265,140,cs),
(245,140,o),
(239,146,o),
(233,152,c),
(255,157,o),
(285,176,o),
(285,217,cs),
(285,256,o),
(255,285,o),
(217,285,cs),
(180,285,o),
(144,254,o),
(144,205,cs),
(144,138,o),
(198,92,o),
(267,92,cs)
);
}
);
width = 675;
}
);
unicode = 6408;
},
{
glyphname = uni1909;
lastChange = "2021-02-27 04:55:41 +0000";
layers = (
{
anchors = (
{
name = Anchor2;
pos = (302,644);
},
{
name = Anchor3;
pos = (517,498);
},
{
name = Anchor4;
pos = (283,732);
},
{
name = Anchor6;
pos = (195,-49);
}
);
layerId = UUID0;
shapes = (
{
closed = 1;
nodes = (
(304,-125,o),
(470,-31,o),
(544,82,c),
(513,113,l),
(447,77,o),
(376,65,o),
(303,65,cs),
(199,65,o),
(121,88,o),
(121,162,cs),
(121,203,o),
(147,236,o),
(190,258,c),
(207,256,o),
(224,255,o),
(243,255,cs),
(334,255,o),
(421,289,o),
(476,321,c),
(452,353,l),
(414,334,o),
(337,319,o),
(259,319,cs),
(182,319,o),
(121,352,o),
(121,406,cs),
(121,470,o),
(176,504,o),
(275,504,cs),
(461,504,l),
(485,576,l),
(288,576,ls),
(144,576,o),
(39,473,o),
(39,391,cs),
(39,334,o),
(65,291,o),
(130,270,c),
(81,239,o),
(39,191,o),
(39,141,cs),
(39,60,o),
(89,-7,o),
(272,-7,cs),
(313,-7,o),
(355,0,o),
(395,10,c),
(329,-42,o),
(229,-93,o),
(159,-117,c),
(179,-156,l)
);
}
);
width = 583;
}
);
unicode = 6409;
},
{
glyphname = uni190A;
lastChange = "2021-02-27 04:55:41 +0000";
layers = (
{
anchors = (
{
name = Anchor2;
pos = (361,644);
},
{
name = Anchor3;
pos = (659,498);
},
{
name = Anchor4;
pos = (361,732);
},
{
name = Anchor6;
pos = (292,0);
}
);
layerId = UUID0;
shapes = (
{
closed = 1;
nodes = (
(375,-7,o),
(439,114,o),
(439,232,cs),
(439,281,l),
(492,253,o),
(541,213,o),
(584,164,c),
(549,109,o),
(509,61,o),
(472,29,c),
(504,-2,l),
(543,29,o),
(584,70,o),
(622,116,c),
(648,80,o),
(672,40,o),
(693,-2,c),
(738,25,l),
(718,74,o),
(691,122,o),
(659,167,c),
(695,219,o),
(723,276,o),
(732,331,c),
(667,355,l),
(658,313,o),
(640,266,o),
(617,221,c),
(565,280,o),
(504,329,o),
(439,359,c),
(439,504,l),
(605,504,l),
(630,576,l),
(71,576,l),
(46,504,l),
(359,504,l),
(359,387,l),
(338,392,o),
(316,394,o),
(294,394,cs),
(173,394,o),
(39,328,o),
(39,167,cs),
(39,62,o),
(118,-7,o),
(217,-7,cs)
);
},
{
closed = 1;
nodes = (
(131,65,o),
(89,110,o),
(89,175,cs),
(89,267,o),
(160,322,o),
(284,322,cs),
(309,322,o),
(334,318,o),
(359,312,c),
(359,217,ls),
(359,102,o),
(281,65,o),
(214,65,cs)
);
}
);
width = 777;
}
);
unicode = 6410;
},
{
glyphname = uni190B;
lastChange = "2021-02-27 04:55:41 +0000";
layers = (
{
anchors = (
{
name = Anchor2;
pos = (273,644);
},
{
name = Anchor3;
pos = (498,498);
},
{
name = Anchor4;
pos = (263,732);
},
{
name = Anchor6;
pos = (263,0);
}
);
layerId = UUID0;
shapes = (
{
closed = 1;
nodes = (
(390,-7,o),
(514,69,o),
(514,190,cs),
(514,248,o),
(484,301,o),
(410,331,c),
(450,358,o),
(473,393,o),
(473,440,cs),
(473,516,o),
(414,583,o),
(271,583,cs),
(154,583,o),
(83,521,o),
(41,471,c),
(66,444,l),
(119,492,o),
(187,511,o),
(262,511,cs),
(341,511,o),
(389,483,o),
(389,432,cs),
(389,394,o),
(375,368,o),
(348,347,c),
(323,352,o),
(293,354,o),
(261,354,cs),
(189,354,l),
(165,282,l),
(234,282,ls),
(360,282,o),
(432,262,o),
(432,173,cs),
(432,84,o),
(345,41,o),
(258,41,cs),
(178,41,o),
(101,73,o),
(61,114,c),
(29,77,l),
(79,28,o),
(170,-7,o),
(257,-7,cs)
);
}
);
width = 553;
}
);
unicode = 6411;
},
{
glyphname = uni190C;
lastChange = "2021-02-27 04:55:41 +0000";
layers = (
{
anchors = (
{
name = Anchor2;
pos = (292,644);
},
{
name = Anchor3;
pos = (478,498);
},
{
name = Anchor4;
pos = (253,732);
},
{
name = Anchor6;
pos = (314,0);
}
);
layerId = UUID0;
shapes = (
{
closed = 1;
nodes = (
(375,-7,o),
(439,114,o),
(439,232,cs),
(439,305,l),
(590,289,o),
(612,204,o),
(612,170,cs),
(612,80,o),
(548,48,o),
(506,36,c),
(523,-7,l),
(625,27,o),
(662,102,o),
(662,177,cs),
(662,299,o),
(578,365,o),
(439,377,c),
(439,576,l),
(71,576,l),
(46,504,l),
(359,504,l),
(359,379,l),
(174,372,o),
(39,295,o),
(39,161,cs),
(39,55,o),
(118,-7,o),
(217,-7,cs)
);
},
{
closed = 1;
nodes = (
(121,65,o),
(89,119,o),
(89,161,cs),
(89,247,o),
(185,301,o),
(359,307,c),
(359,217,ls),
(359,102,o),
(281,65,o),
(214,65,cs)
);
}
);
width = 691;
}
);
unicode = 6412;
},
{
glyphname = uni190D;
lastChange = "2021-02-27 04:55:41 +0000";
layers = (
{
anchors = (
{
name = Anchor2;
pos = (322,644);
},
{
name = Anchor3;
pos = (634,498);
},
{
name = Anchor4;
pos = (292,732);
},
{
name = Anchor6;
pos = (314,0);
}
);
layerId = UUID0;
shapes = (
{
closed = 1;
nodes = (
(483,-7,o),
(586,77,o),
(586,197,cs),
(586,324,o),
(479,374,o),
(360,374,cs),
(337,374,o),
(300,370,o),
(280,363,c),
(289,448,l),
(421,448,o),
(535,469,o),
(585,509,c),
(585,581,l),
(512,530,o),
(376,520,o),
(296,520,cs),
(199,520,o),
(94,537,o),
(20,581,c),
(20,509,l),
(61,479,o),
(135,456,o),
(238,449,c),
(223,319,l),
(232,310,l),
(259,320,o),
(292,326,o),
(346,326,cs),
(464,326,o),
(502,259,o),
(502,205,cs),
(502,106,o),
(426,65,o),
(319,65,cs),
(229,65,o),
(145,83,o),
(50,171,c),
(22,146,l),
(55,100,o),
(164,-7,o),
(317,-7,cs)
);
}
);
width = 625;
}
);
unicode = 6413;
},
{
glyphname = uni190E;
lastChange = "2021-02-27 04:55:41 +0000";
layers = (
{
anchors = (
{
name = Anchor2;
pos = (322,644);
},
{
name = Anchor3;
pos = (673,498);
},
{
name = Anchor4;
pos = (224,732);
},
{
name = Anchor6;
pos = (314,0);
}
);
layerId = UUID0;
shapes = (
{
closed = 1;
nodes = (
(487,-7,o),
(534,202,o),
(545,321,cs),
(555,425,o),
(589,490,o),
(641,549,c),
(609,576,l),
(537,497,o),
(495,425,o),
(480,349,cs),
(450,198,o),
(480,65,o),
(269,65,cs),
(200,65,o),
(146,90,o),
(146,164,cs),
(146,195,o),
(159,235,o),
(226,274,c),
(271,279,o),
(328,299,o),
(374,334,c),
(357,363,l),
(330,352,o),
(279,346,o),
(245,346,cs),
(183,346,o),
(146,375,o),
(146,420,cs),
(146,458,o),
(158,479,o),
(181,504,c),
(381,504,l),
(405,576,l),
(49,576,l),
(24,504,l),
(126,504,l),
(84,465,o),
(63,427,o),
(63,390,cs),
(63,334,o),
(109,294,o),
(162,279,c),
(109,246,o),
(63,192,o),
(63,142,cs),
(63,47,o),
(146,-7,o),
(245,-7,cs)
);
}
);
width = 680;
}
);
unicode = 6414;
},
{
glyphname = uni190F;
lastChange = "2021-02-27 04:55:41 +0000";
layers = (
{
anchors = (
{
name = Anchor2;
pos = (332,644);
},
{
name = Anchor3;
pos = (585,498);
},
{
name = Anchor4;
pos = (322,732);
},
{
name = Anchor6;
pos = (292,0);
}
);
layerId = UUID0;
shapes = (
{
closed = 1;
nodes = (
(542,0,l),
(566,72,l),
(158,72,l),
(198,133,o),
(252,205,o),
(312,277,c),
(510,277,l),
(534,330,l),
(355,330,l),
(422,408,o),
(493,483,o),
(556,542,c),
(563,576,l),
(63,576,l),
(39,504,l),
(452,504,l),
(303,370,o),
(188,244,o),
(60,72,c),
(43,0,l)
);
}
);
width = 605;
}
);
unicode = 6415;
},
{
glyphname = uni1910;
lastChange = "2021-02-27 04:55:41 +0000";
layers = (
{
anchors = (
{
name = Anchor2;
pos = (361,644);
},
{
name = Anchor3;
pos = (693,498);
},
{
name = Anchor4;
pos = (371,732);
},
{
name = Anchor6;
pos = (361,0);
}
);
layerId = UUID0;
shapes = (
{
closed = 1;
nodes = (
(275,-7,o),
(321,23,o),
(354,63,c),
(385,16,o),
(438,-7,o),
(497,-7,cs),
(603,-7,o),
(708,134,o),
(708,280,cs),
(708,421,o),
(650,535,o),
(543,583,c),
(496,519,l),
(613,458,o),
(626,335,o),
(626,244,cs),
(626,149,o),
(598,65,o),
(505,65,cs),
(476,65,o),
(404,82,o),
(404,185,cs),
(404,249,l),
(324,225,l),
(324,171,ls),
(324,149,o),
(327,129,o),
(332,110,c),
(306,82,o),
(272,65,o),
(234,65,cs),
(176,65,o),
(121,121,o),
(121,261,cs),
(121,415,o),
(197,516,o),
(249,552,c),
(228,581,l),
(128,518,o),
(39,391,o),
(39,245,cs),
(39,86,o),
(112,-7,o),
(219,-7,cs)
);
}
);
width = 747;
}
);
unicode = 6416;
},
{
glyphname = uni1911;
lastChange = "2021-02-27 04:55:41 +0000";
layers = (
{
anchors = (
{
name = Anchor2;
pos = (410,644);
},
{
name = Anchor3;
pos = (781,498);
},
{
name = Anchor4;
pos = (390,732);
},
{
name = Anchor6;
pos = (390,0);
}
);
layerId = UUID0;
shapes = (
{
closed = 1;
nodes = (
(299,-7,o),
(346,88,o),
(384,197,c),
(417,88,o),
(462,-7,o),
(569,-7,cs),
(681,-7,o),
(771,165,o),
(771,311,cs),
(771,483,o),
(714,583,o),
(596,583,cs),
(504,583,o),
(449,509,o),
(408,417,c),
(376,509,o),
(332,583,o),
(244,583,cs),
(160,583,o),
(86,515,o),
(58,425,c),
(114,411,l),
(125,481,o),
(158,516,o),
(207,516,cs),
(298,516,o),
(329,407,o),
(359,289,c),
(319,174,o),
(284,69,o),
(215,69,cs),
(139,69,o),
(127,148,o),
(122,221,c),
(39,232,l),
(41,91,o),
(96,-7,o),
(204,-7,cs)
);
},
{
closed = 1;
nodes = (
(495,65,o),
(462,228,o),
(444,294,cs),
(432,339,l),
(465,434,o),
(503,511,o),
(575,511,cs),
(624,511,o),
(689,459,o),
(689,281,cs),
(689,153,o),
(667,65,o),
(589,65,cs)
);
}
);
width = 811;
}
);
unicode = 6417;
},
{
glyphname = uni1912;
lastChange = "2021-02-27 04:55:41 +0000";
layers = (
{
anchors = (
{
name = Anchor2;
pos = (332,644);
},
{
name = Anchor3;
pos = (585,498);
},
{
name = Anchor4;
pos = (292,732);
},
{
name = Anchor6;
pos = (314,0);
}
);
layerId = UUID0;
shapes = (
{
closed = 1;
nodes = (
(428,-7,o),
(576,65,o),
(576,197,cs),
(576,258,o),
(523,308,o),
(462,308,cs),
(401,308,o),
(353,265,o),
(353,204,cs),
(353,151,o),
(388,102,o),
(436,90,c),
(393,70,o),
(344,65,o),
(305,65,cs),
(228,65,o),
(111,106,o),
(111,238,cs),
(111,375,o),
(209,462,o),
(328,504,c),
(533,504,l),
(557,576,l),
(54,576,l),
(29,504,l),
(239,504,l),
(142,458,o),
(29,361,o),
(29,234,cs),
(29,90,o),
(123,-7,o),
(306,-7,cs)
);
},
{
closed = 1;
nodes = (
(425,154,o),
(405,176,o),
(405,208,cs),
(405,232,o),
(423,255,o),
(456,255,cs),
(488,255,o),
(504,229,o),
(504,205,cs),
(504,179,o),
(489,154,o),
(457,154,cs)
);
}
);
width = 615;
}
);
unicode = 6418;
},
{
glyphname = uni1913;
lastChange = "2021-02-27 04:55:41 +0000";
layers = (
{
anchors = (
{
name = Anchor2;
pos = (361,644);
},
{
name = Anchor3;
pos = (673,498);
},
{
name = Anchor4;
pos = (371,732);
},
{
name = Anchor6;
pos = (371,0);
}
);
layerId = UUID0;
shapes = (
{
closed = 1;
nodes = (
(627,20,l),
(627,581,l),
(547,557,l),
(547,260,l),
(490,205,o),
(434,197,o),
(408,197,cs),
(364,197,o),
(319,216,o),
(319,270,cs),
(319,337,o),
(424,403,o),
(424,469,cs),
(424,543,o),
(369,583,o),
(278,583,cs),
(162,583,o),
(29,446,o),
(29,304,cs),
(29,190,o),
(93,125,o),
(202,125,cs),
(241,125,o),
(271,135,o),
(296,149,c),
(323,133,o),
(356,125,o),
(392,125,cs),
(463,125,o),
(510,165,o),
(547,205,c),
(547,-5,l)
);
},
{
closed = 1;
nodes = (
(118,197,o),
(97,272,o),
(97,335,cs),
(97,426,o),
(152,509,o),
(257,509,cs),
(310,509,o),
(342,488,o),
(342,451,cs),
(342,381,o),
(237,327,o),
(237,259,cs),
(237,236,o),
(242,217,o),
(250,200,c),
(237,198,o),
(226,197,o),
(218,197,cs)
);
}
);
width = 700;
}
);
unicode = 6419;
},
{
glyphname = uni1914;
lastChange = "2021-02-27 04:55:41 +0000";
layers = (
{
anchors = (
{
name = Anchor2;
pos = (332,644);
},
{
name = Anchor3;
pos = (624,498);
},
{
name = Anchor4;
pos = (322,732);
},
{
name = Anchor6;
pos = (314,9);
}
);
layerId = UUID0;
shapes = (
{
closed = 1;
nodes = (
(574,34,l),
(574,576,l),
(50,576,l),
(25,504,l),
(368,504,l),
(24,185,l),
(34,153,l),
(213,153,o),
(363,107,o),
(499,0,c)
);
},
{
closed = 1;
nodes = (
(424,141,o),
(299,214,o),
(146,226,c),
(446,504,l),
(494,504,l),
(494,80,l)
);
}
);
width = 647;
}
);
unicode = 6420;
},
{
glyphname = uni1915;
lastChange = "2021-02-27 04:55:41 +0000";
layers = (
{
anchors = (
{
name = Anchor2;
pos = (292,644);
},
{
name = Anchor3;
pos = (498,498);
},
{
name = Anchor4;
pos = (263,732);
},
{
name = Anchor6;
pos = (302,0);
}
);
layerId = UUID0;
shapes = (
{
closed = 1;
nodes = (
(320,-7,o),
(381,13,o),
(428,44,c),
(463,24,o),
(502,6,o),
(546,-7,c),
(564,34,l),
(529,42,o),
(498,58,o),
(468,77,c),
(516,124,o),
(542,184,o),
(542,242,cs),
(542,339,o),
(447,407,o),
(332,407,c),
(473,542,l),
(480,576,l),
(76,576,l),
(51,504,l),
(369,504,l),
(242,389,l),
(237,360,l),
(266,362,o),
(284,363,o),
(296,363,cs),
(422,363,o),
(460,290,o),
(460,234,cs),
(460,183,o),
(443,145,o),
(416,118,c),
(340,182,o),
(271,257,o),
(169,257,cs),
(102,257,o),
(39,210,o),
(39,136,cs),
(39,33,o),
(149,-7,o),
(248,-7,cs)
);
},
{
closed = 1;
nodes = (
(170,65,o),
(89,88,o),
(89,136,cs),
(89,172,o),
(129,185,o),
(161,185,cs),
(229,185,o),
(289,136,o),
(365,84,c),
(333,71,o),
(297,65,o),
(259,65,cs)
);
}
);
width = 604;
}
);
unicode = 6421;
},
{
glyphname = uni1916;
lastChange = "2021-02-27 04:55:41 +0000";
layers = (
{
anchors = (
{
name = Anchor2;
pos = (332,644);
},
{
name = Anchor3;
pos = (585,498);
},
{
name = Anchor4;
pos = (292,732);
},
{
name = Anchor6;
pos = (314,0);
}
);
layerId = UUID0;
shapes = (
{
closed = 1;
nodes = (
(140,20,l),
(173,92,o),
(229,178,o),
(300,267,c),
(528,-5,l),
(586,10,l),
(336,311,l),
(402,389,o),
(478,468,o),
(561,542,c),
(568,576,l),
(54,576,l),
(29,504,l),
(457,504,l),
(343,406,o),
(135,210,o),
(33,-5,c)
);
}
);
width = 625;
}
);
unicode = 6422;
},
{
glyphname = uni1917;
lastChange = "2021-02-27 04:55:41 +0000";
layers = (
{
anchors = (
{
name = Anchor2;
pos = (332,644);
},
{
name = Anchor3;
pos = (634,498);
},
{
name = Anchor4;
pos = (322,732);
},
{
name = Anchor6;
pos = (314,0);
}
);
layerId = UUID0;
shapes = (
{
closed = 1;
nodes = (
(583,20,l),
(583,581,l),
(572,583,l),
(505,541,o),
(395,510,o),
(291,510,cs),
(212,510,o),
(147,541,o),
(105,581,c),
(42,538,l),
(28,504,o),
(24,476,o),
(24,438,cs),
(24,280,o),
(141,215,o),
(248,215,cs),
(340,215,o),
(427,267,o),
(475,310,c),
(452,339,l),
(410,308,o),
(340,288,o),
(273,288,cs),
(199,288,o),
(106,319,o),
(106,459,cs),
(106,469,o),
(107,481,o),
(108,493,c),
(149,466,o),
(194,438,o),
(291,438,cs),
(368,438,o),
(460,479,o),
(502,504,c),
(502,-5,l)
);
}
);
width = 656;
}
);
unicode = 6423;
},
{
glyphname = uni1918;
lastChange = "2021-02-27 04:55:41 +0000";
layers = (
{
anchors = (
{
name = Anchor2;
pos = (380,644);
},
{
name = Anchor3;
pos = (634,498);
},
{
name = Anchor4;
pos = (390,732);
},
{
name = Anchor6;
pos = (322,0);
}
);
layerId = UUID0;
shapes = (
{
closed = 1;
nodes = (
(587,20,l),
(587,581,l),
(507,557,l),
(507,270,l),
(460,237,o),
(402,227,o),
(363,227,cs),
(304,227,o),
(263,260,o),
(263,335,cs),
(263,581,l),
(181,557,l),
(0,218,l),
(17,158,l),
(181,459,l),
(181,325,ls),
(181,238,o),
(229,179,o),
(338,179,cs),
(400,179,o),
(474,204,o),
(507,228,c),
(507,-5,l)
);
}
);
width = 661;
}
);
unicode = 6424;
},
{
glyphname = uni1919;
lastChange = "2021-02-27 04:55:41 +0000";
layers = (
{
anchors = (
{
name = Anchor2;
pos = (341,644);
},
{
name = Anchor3;
pos = (488,498);
},
{
name = Anchor4;
pos = (263,732);
},
{
name = Anchor6;
pos = (283,0);
}
);
layerId = UUID0;
shapes = (
{
closed = 1;
nodes = (
(355,-7,o),
(453,65,o),
(453,272,cs),
(453,504,l),
(587,504,l),
(611,576,l),
(397,576,l),
(373,504,l),
(373,230,ls),
(373,70,o),
(319,41,o),
(256,41,cs),
(202,41,o),
(153,71,o),
(153,212,cs),
(153,581,l),
(73,557,l),
(73,218,ls),
(73,60,o),
(149,-7,o),
(256,-7,cs)
);
}
);
width = 636;
}
);
unicode = 6425;
},
{
glyphname = uni191A;
lastChange = "2021-02-27 04:55:41 +0000";
layers = (
{
anchors = (
{
name = Anchor2;
pos = (283,644);
},
{
name = Anchor3;
pos = (498,498);
},
{
name = Anchor4;
pos = (253,732);
},
{
name = Anchor6;
pos = (195,0);
}
);
layerId = UUID0;
shapes = (
{
closed = 1;
nodes = (
(448,20,l),
(448,581,l),
(375,550,l),
(341,572,o),
(298,583,o),
(260,583,cs),
(193,583,o),
(39,488,o),
(39,347,cs),
(39,223,o),
(125,169,o),
(206,169,cs),
(280,169,o),
(334,213,o),
(368,273,c),
(368,-5,l)
);
},
{
closed = 1;
nodes = (
(160,241,o),
(121,291,o),
(121,367,cs),
(121,443,o),
(149,511,o),
(229,511,cs),
(313,511,o),
(348,468,o),
(367,445,c),
(367,393,ls),
(367,278,o),
(296,241,o),
(229,241,cs)
);
}
);
width = 521;
}
);
unicode = 6426;
},
{
glyphname = uni191B;
lastChange = "2021-02-27 04:55:41 +0000";
layers = (
{
anchors = (
{
name = Anchor2;
pos = (361,644);
},
{
name = Anchor3;
pos = (605,498);
},
{
name = Anchor4;
pos = (341,732);
},
{
name = Anchor6;
pos = (302,0);
}
);
layerId = UUID0;
shapes = (
{
closed = 1;
nodes = (
(558,20,l),
(558,576,l),
(228,576,ls),
(131,576,o),
(39,438,o),
(39,342,cs),
(39,208,o),
(129,169,o),
(203,169,cs),
(326,169,o),
(396,294,o),
(396,416,cs),
(396,437,o),
(395,480,o),
(377,504,c),
(478,504,l),
(478,-5,l)
);
},
{
closed = 1;
nodes = (
(174,241,o),
(121,272,o),
(121,360,cs),
(121,436,o),
(144,504,o),
(201,504,cs),
(293,504,l),
(310,484,o),
(321,431,o),
(321,391,cs),
(321,313,o),
(293,241,o),
(212,241,cs)
);
}
);
width = 631;
}
);
unicode = 6427;
},
{
glyphname = uni191C;
lastChange = "2021-02-27 04:55:41 +0000";
layers = (
{
anchors = (
{
name = Anchor2;
pos = (361,644);
},
{
name = Anchor3;
pos = (605,498);
},
{
name = Anchor4;
pos = (400,732);
},
{
name = Anchor6;
pos = (341,0);
}
);
layerId = UUID0;
shapes = (
{
closed = 1;
nodes = (
(493,-7,o),
(596,100,o),
(629,146,c),
(602,171,l),
(507,83,o),
(428,65,o),
(337,65,cs),
(206,65,o),
(123,148,o),
(123,277,cs),
(123,411,o),
(201,491,o),
(262,504,c),
(470,504,l),
(277,328,l),
(266,275,l),
(294,276,o),
(300,278,o),
(325,278,cs),
(446,278,o),
(513,252,o),
(547,228,c),
(583,300,l),
(538,325,o),
(431,346,o),
(367,346,c),
(574,542,l),
(581,576,l),
(336,576,l),
(169,554,o),
(39,413,o),
(39,268,cs),
(39,96,o),
(152,-7,o),
(339,-7,cs)
);
}
);
width = 659;
}
);
unicode = 6428;
},
{
glyphname = uni191D;
lastChange = "2021-02-27 04:55:41 +0000";
layers = (
{
anchors = (
{
name = Anchor2;
pos = (302,644);
},
{
name = Anchor3;
pos = (595,498);
},
{
name = Anchor4;
pos = (302,732);
},
{
name = Anchor6;
pos = (322,0);
}
);
layerId = UUID0;
shapes = (
{
closed = 1;
nodes = (
(583,576,l),
(49,576,l),
(24,504,l),
(159,504,l),
(159,190,l),
(239,215,l),
(239,238,l),
(251,350,o),
(300,372,o),
(355,372,cs),
(410,372,o),
(451,341,o),
(451,201,cs),
(451,-5,l),
(531,20,l),
(531,194,ls),
(531,353,o),
(463,420,o),
(355,420,cs),
(314,420,o),
(273,407,o),
(239,378,c),
(239,504,l),
(559,504,l)
);
}
);
width = 615;
}
);
unicode = 6429;
},
{
glyphname = uni191E;
lastChange = "2021-02-27 04:55:41 +0000";
layers = (
{
anchors = (
{
name = Anchor2;
pos = (297,644);
},
{
name = Anchor3;
pos = (585,498);
},
{
name = Anchor4;
pos = (297,732);
},
{
name = Anchor6;
pos = (332,-54);
}
);
layerId = UUID0;
shapes = (
{
closed = 1;
nodes = (
(569,576,l),
(49,576,l),
(24,504,l),
(149,504,l),
(149,348,l),
(418,348,l),
(418,217,ls),
(418,147,o),
(380,106,o),
(333,84,c),
(314,168,o),
(273,246,o),
(184,246,cs),
(125,246,o),
(75,196,o),
(75,122,cs),
(75,25,o),
(162,-7,o),
(251,-7,cs),
(268,-7,o),
(284,-6,o),
(299,-3,c),
(304,-42,o),
(305,-78,o),
(305,-100,c),
(351,-100,l),
(351,-76,o),
(350,-36,o),
(346,9,c),
(444,46,o),
(498,140,o),
(498,232,cs),
(498,420,l),
(229,420,l),
(229,504,l),
(544,504,l)
);
},
{
closed = 1;
nodes = (
(163,65,o),
(125,97,o),
(125,126,cs),
(125,151,o),
(141,174,o),
(177,174,cs),
(235,174,o),
(267,126,o),
(284,69,c),
(268,66,o),
(252,65,o),
(237,65,cs)
);
}
);
width = 601;
}
);
unicode = 6430;
},
{
category = Mark;
glyphname = uni1920;
lastChange = "2021-02-27 04:55:41 +0000";
layers = (
{
anchors = (
{
name = Anchor8;
pos = (-127,781);
},
{
name = _Anchor2;
pos = (-269,644);
}
);
layerId = UUID0;
shapes = (
{
closed = 1;
nodes = (
(-504,703,o),
(-456,654,o),
(-395,654,cs),
(-63,654,l),
(-39,722,l),
(-291,722,l),
(-284,737,o),
(-281,754,o),
(-281,773,cs),
(-281,833,o),
(-327,875,o),
(-390,875,cs),
(-452,875,o),
(-504,825,o),
(-504,764,cs)
);
},
{
closed = 1;
nodes = (
(-432,801,o),
(-411,823,o),
(-386,823,cs),
(-354,823,o),
(-333,803,o),
(-333,774,cs),
(-333,742,o),
(-353,722,o),
(-382,722,cs),
(-415,722,o),
(-432,743,o),
(-432,775,cs)
);
}
);
width = 0;
}
);
subCategory = Nonspacing;
unicode = 6432;
},
{
category = Mark;
glyphname = uni1921;
lastChange = "2023-05-24 20:02:00 +0000";
layers = (
{
anchors = (
{
name = Anchor8;
pos = (256,644);
},
{
name = _Anchor3;
pos = (-30,498);
}
);
layerId = UUID0;
shapes = (
{
closed = 1;
nodes = (
(138,504,l),
(163,576,l),
(50,576,l),
(59,591,o),
(71,634,o),
(71,684,cs),
(71,787,o),
(-13,838,o),
(-138,838,cs),
(-295,838,o),
(-346,765,o),
(-346,691,cs),
(-346,665,o),
(-337,638,o),
(-322,615,c),
(-272,628,l),
(-287,645,o),
(-296,667,o),
(-296,689,cs),
(-296,724,o),
(-267,766,o),
(-138,766,cs),
(20,766,o),
(21,705,o),
(21,674,cs),
(21,623,o),
(0,565,o),
(-34,504,c)
);
}
);
width = 200;
}
);
subCategory = "Spacing Combining";
unicode = 6433;
},
{
category = Mark;
glyphname = uni1922;
lastChange = "2024-09-11 15:02:02 +0000";
layers = (
{
anchors = (
{
name = Anchor6;
pos = (-448,-266);
},
{
name = _Anchor6;
pos = (-323,-15);
}
);
layerId = UUID0;
shapes = (
{
closed = 1;
nodes = (
(-305,-246,o),
(-169,-153,o),
(-78,5,c),
(-117,0,l),
(-213,-123,o),
(-332,-166,o),
(-426,-174,c),
(-422,-163,o),
(-419,-148,o),
(-419,-136,cs),
(-419,-86,o),
(-460,-49,o),
(-506,-49,cs),
(-557,-49,o),
(-599,-86,o),
(-599,-140,cs),
(-599,-227,o),
(-512,-246,o),
(-448,-246,cs)
);
},
{
closed = 1;
nodes = (
(-529,-176,o),
(-546,-159,o),
(-546,-139,cs),
(-546,-118,o),
(-529,-101,o),
(-509,-101,cs),
(-488,-101,o),
(-472,-118,o),
(-472,-139,cs),
(-472,-159,o),
(-488,-176,o),
(-509,-176,cs)
);
}
);
width = 0;
}
);
subCategory = Nonspacing;
unicode = 6434;
},
{
category = Mark;
glyphname = uni1923;
lastChange = "2024-09-11 14:50:25 +0000";
layers = (
{
layerId = UUID0;
shapes = (
{
closed = 1;
nodes = (
(164,144,o),
(262,301,o),
(262,423,cs),
(262,502,o),
(232,583,o),
(125,583,cs),
(59,583,o),
(13,533,o),
(13,470,cs),
(13,414,o),
(59,363,o),
(121,363,cs),
(135,363,o),
(153,366,o),
(167,371,c),
(159,274,o),
(106,144,o),
(5,10,c),
(34,-7,l)
);
},
{
closed = 1;
nodes = (
(91,416,o),
(65,441,o),
(65,473,cs),
(65,505,o),
(91,531,o),
(123,531,cs),
(155,531,o),
(181,505,o),
(181,473,cs),
(181,441,o),
(155,416,o),
(123,416,cs)
);
}
);
width = 286;
}
);
subCategory = "Spacing Combining";
unicode = 6435;
},
{
category = Mark;
glyphname = uni1924;
lastChange = "2024-09-11 14:50:25 +0000";
layers = (
{
layerId = UUID0;
shapes = (
{
closed = 1;
nodes = (
(397,132,o),
(537,276,o),
(537,423,cs),
(537,502,o),
(507,583,o),
(400,583,cs),
(333,583,o),
(288,533,o),
(288,470,cs),
(288,409,o),
(334,361,o),
(396,361,cs),
(410,361,o),
(428,364,o),
(441,369,c),
(434,271,o),
(315,132,o),
(173,18,c),
(197,-7,l)
);
},
{
closed = 1;
nodes = (
(164,144,o),
(262,301,o),
(262,423,cs),
(262,502,o),
(232,583,o),
(125,583,cs),
(59,583,o),
(13,533,o),
(13,470,cs),
(13,409,o),
(59,361,o),
(121,361,cs),
(135,361,o),
(153,364,o),
(167,369,c),
(159,271,o),
(106,144,o),
(5,10,c),
(34,-7,l)
);
},
{
closed = 1;
nodes = (
(85,409,o),
(63,439,o),
(63,472,cs),
(63,505,o),
(86,536,o),
(122,536,cs),
(158,536,o),
(180,506,o),
(180,471,cs),
(180,437,o),
(157,409,o),
(121,409,cs)
);
},
{
closed = 1;
nodes = (
(360,409,o),
(338,439,o),
(338,472,cs),
(338,505,o),
(361,536,o),
(397,536,cs),
(433,536,o),
(455,506,o),
(455,471,cs),
(455,437,o),
(432,409,o),
(396,409,cs)
);
}
);
width = 561;
}
);
subCategory = "Spacing Combining";
unicode = 6436;
},
{
category = Mark;
glyphname = uni1925;
lastChange = "2024-09-11 14:50:25 +0000";
layers = (
{
layerId = UUID0;
shapes = (
{
closed = 1;
nodes = (
(164,144,o),
(262,301,o),
(262,423,cs),
(262,502,o),
(232,583,o),
(125,583,cs),
(59,583,o),
(13,533,o),
(13,470,cs),
(13,409,o),
(59,361,o),
(121,361,cs),
(135,361,o),
(153,364,o),
(167,369,c),
(159,271,o),
(106,144,o),
(5,10,c),
(34,-7,l)
);
},
{
closed = 1;
nodes = (
(-399,722,o),
(-418,743,o),
(-418,775,cs),
(-418,795,o),
(-401,823,o),
(-372,823,cs),
(-345,823,o),
(-319,807,o),
(-319,774,cs),
(-319,742,o),
(-338,722,o),
(-367,722,cs)
);
},
{
closed = 1;
nodes = (
(-48,654,l),
(-24,722,l),
(-276,722,l),
(-271,734,o),
(-267,758,o),
(-267,773,cs),
(-267,835,o),
(-314,875,o),
(-375,875,cs),
(-436,875,o),
(-489,825,o),
(-489,764,cs),
(-489,703,o),
(-441,654,o),
(-380,654,cs)
);
},
{
closed = 1;
nodes = (
(85,409,o),
(63,439,o),
(63,472,cs),
(63,505,o),
(86,536,o),
(122,536,cs),
(158,536,o),
(180,506,o),
(180,471,cs),
(180,437,o),
(157,409,o),
(121,409,cs)
);
}
);
width = 286;
}
);
subCategory = "Spacing Combining";
unicode = 6437;
},
{
category = Mark;
glyphname = uni1926;
lastChange = "2024-09-11 14:50:25 +0000";
layers = (
{
layerId = UUID0;
shapes = (
{
closed = 1;
nodes = (
(397,132,o),
(537,276,o),
(537,423,cs),
(537,502,o),
(507,583,o),
(400,583,cs),
(333,583,o),
(288,533,o),
(288,470,cs),
(288,409,o),
(334,361,o),
(396,361,cs),
(410,361,o),
(428,364,o),
(441,369,c),
(434,271,o),
(315,132,o),
(173,18,c),
(197,-7,l)
);
},
{
closed = 1;
nodes = (
(164,144,o),
(262,301,o),
(262,423,cs),
(262,502,o),
(232,583,o),
(125,583,cs),
(59,583,o),
(13,533,o),
(13,470,cs),
(13,409,o),
(59,361,o),
(121,361,cs),
(135,361,o),
(153,364,o),
(167,369,c),
(159,271,o),
(106,144,o),
(5,10,c),
(34,-7,l)
);
},
{
closed = 1;
nodes = (
(85,409,o),
(63,439,o),
(63,472,cs),
(63,505,o),
(86,536,o),
(122,536,cs),
(158,536,o),
(180,506,o),
(180,471,cs),
(180,437,o),
(157,409,o),
(121,409,cs)
);
},
{
closed = 1;
nodes = (
(360,409,o),
(338,439,o),
(338,472,cs),
(338,505,o),
(361,536,o),
(397,536,cs),
(433,536,o),
(455,506,o),
(455,471,cs),
(455,437,o),
(432,409,o),
(396,409,cs)
);
},
{
closed = 1;
nodes = (
(-399,722,o),
(-418,743,o),
(-418,775,cs),
(-418,795,o),
(-401,823,o),
(-372,823,cs),
(-345,823,o),
(-319,807,o),
(-319,774,cs),
(-319,742,o),
(-338,722,o),
(-367,722,cs)
);
},
{
closed = 1;
nodes = (
(-48,654,l),
(-24,722,l),
(-276,722,l),
(-271,734,o),
(-267,758,o),
(-267,773,cs),
(-267,835,o),
(-314,875,o),
(-375,875,cs),
(-436,875,o),
(-489,825,o),
(-489,764,cs),
(-489,703,o),
(-441,654,o),
(-380,654,cs)
);
}
);
width = 561;
}
);
subCategory = "Spacing Combining";
unicode = 6438;
},
{
category = Mark;
glyphname = uni1927;
lastChange = "2021-02-27 04:55:41 +0000";
layers = (
{
anchors = (
{
name = Anchor8;
pos = (-191,834);
},
{
name = _Anchor2;
pos = (-245,659);
}
);
layerId = UUID0;
shapes = (
{
closed = 1;
nodes = (
(-155,708,l),
(-459,871,l),
(-486,823,l),
(-188,649,l)
);
}
);
width = 0;
}
);
subCategory = Nonspacing;
unicode = 6439;
},
{
category = Mark;
glyphname = uni1928;
lastChange = "2021-02-27 04:55:41 +0000";
layers = (
{
anchors = (
{
name = Anchor8;
pos = (-228,888);
},
{
name = _Anchor2;
pos = (-274,644);
}
);
layerId = UUID0;
shapes = (
{
closed = 1;
nodes = (
(-295,654,l),
(-247,691,o),
(-154,771,o),
(-33,836,c),
(-51,869,l),
(-118,839,o),
(-215,786,o),
(-303,730,c),
(-324,827,o),
(-383,861,o),
(-443,861,cs),
(-469,861,o),
(-496,853,o),
(-519,837,c),
(-505,795,l),
(-489,810,o),
(-467,813,o),
(-445,813,cs),
(-410,813,o),
(-368,783,o),
(-368,654,c)
);
}
);
width = 0;
}
);
subCategory = Nonspacing;
unicode = 6440;
},
{
category = Mark;
glyphname = uni1929;
lastChange = "2024-09-11 14:59:08 +0000";
layers = (
{
layerId = UUID0;
shapes = (
{
closed = 1;
nodes = (
(231,-37,o),
(258,129,o),
(334,165,c),
(329,202,l),
(236,179,o),
(211,36,o),
(149,36,cs),
(108,36,o),
(124,153,o),
(71,153,cs),
(25,153,o),
(-55,91,o),
(-97,41,c),
(-67,10,l),
(-38,38,o),
(1,81,o),
(22,81,cs),
(70,81,o),
(35,-37,o),
(127,-37,cs)
);
}
);
width = 358;
}
);
subCategory = "Spacing Combining";
unicode = 6441;
},
{
category = Mark;
glyphname = uni192A;
lastChange = "2024-09-11 15:01:55 +0000";
layers = (
{
anchors = (
{
name = Anchor6;
pos = (-4,-250);
},
{
name = _Anchor6;
pos = (24,0);
}
);
layerId = UUID0;
shapes = (
{
closed = 1;
nodes = (
(170,-131,l),
(126,-116,o),
(66,-64,o),
(55,23,c),
(36,32,l),
(-53,-64,o),
(-108,-122,o),
(-132,-146,c),
(-103,-176,l),
(-80,-155,o),
(-32,-104,o),
(2,-62,c),
(25,-133,o),
(77,-184,o),
(131,-202,c)
);
}
);
width = 0;
}
);
subCategory = Nonspacing;
unicode = 6442;
},
{
category = Mark;
glyphname = uni192B;
lastChange = "2023-05-24 20:05:16 +0000";
layers = (
{
layerId = UUID0;
shapes = (
{
closed = 1;
nodes = (
(361,20,l),
(361,320,l),
(280,295,l),
(280,126,l),
(242,103,o),
(192,84,o),
(146,84,cs),
(124,84,o),
(121,94,o),
(121,109,cs),
(121,123,o),
(134,146,o),
(147,171,cs),
(161,198,o),
(175,226,o),
(175,250,cs),
(175,280,o),
(164,313,o),
(110,313,cs),
(64,313,o),
(-16,258,o),
(-58,208,c),
(-28,177,l),
(1,204,o),
(57,248,o),
(77,248,cs),
(101,248,o),
(104,229,o),
(104,219,cs),
(104,206,o),
(94,188,o),
(83,169,cs),
(68,142,o),
(50,113,o),
(50,91,cs),
(50,53,o),
(85,32,o),
(128,32,cs),
(186,32,o),
(242,63,o),
(280,85,c),
(280,-5,l)
);
}
);
width = 410;
}
);
subCategory = "Spacing Combining";
unicode = 6443;
},
{
category = Mark;
glyphname = uni1930;
lastChange = "2021-12-16 21:28:45 +0000";
layers = (
{
layerId = UUID0;
shapes = (
{
closed = 1;
nodes = (
(353,214,o),
(445,284,o),
(474,308,c),
(455,333,l),
(404,307,o),
(328,287,o),
(256,287,cs),
(195,287,o),
(119,304,o),
(119,391,cs),
(119,426,o),
(143,467,o),
(206,504,c),
(474,504,l),
(498,576,l),
(44,576,l),
(20,504,l),
(137,504,l),
(84,474,o),
(37,428,o),
(37,371,cs),
(37,255,o),
(150,214,o),
(244,214,cs)
);
}
);
width = 547;
}
);
subCategory = Spacing;
unicode = 6448;
},
{
category = Mark;
glyphname = uni1931;
lastChange = "2021-12-16 21:28:58 +0000";
layers = (
{
layerId = UUID0;
shapes = (
{
closed = 1;
nodes = (
(196,-7,o),
(240,54,o),
(240,119,cs),
(240,185,o),
(197,232,o),
(125,232,cs),
(49,232,o),
(0,178,o),
(0,112,cs),
(0,47,o),
(46,-7,o),
(119,-7,cs)
);
},
{
closed = 1;
nodes = (
(91,55,o),
(65,79,o),
(65,116,cs),
(65,156,o),
(87,183,o),
(125,183,cs),
(159,183,o),
(187,161,o),
(187,122,cs),
(187,84,o),
(167,55,o),
(129,55,cs)
);
}
);
width = 264;
}
);
subCategory = Spacing;
unicode = 6449;
},
{
category = Mark;
glyphname = uni1932;
lastChange = "2021-02-27 04:55:41 +0000";
layers = (
{
anchors = (
{
name = _Anchor6;
pos = (-191,0);
}
);
layerId = UUID0;
shapes = (
{
closed = 1;
nodes = (
(-112,-289,o),
(-68,-228,o),
(-68,-163,cs),
(-68,-96,o),
(-111,-49,o),
(-183,-49,cs),
(-259,-49,o),
(-308,-103,o),
(-308,-169,cs),
(-308,-234,o),
(-262,-289,o),
(-189,-289,cs)
);
},
{
closed = 1;
nodes = (
(-217,-227,o),
(-243,-202,o),
(-243,-165,cs),
(-243,-125,o),
(-220,-99,o),
(-182,-99,cs),
(-148,-99,o),
(-121,-120,o),
(-121,-159,cs),
(-121,-196,o),
(-141,-227,o),
(-179,-227,cs)
);
}
);
width = 0;
}
);
subCategory = Nonspacing;
unicode = 6450;
},
{
category = Mark;
glyphname = uni1933;
lastChange = "2021-12-16 21:29:25 +0000";
layers = (
{
layerId = UUID0;
shapes = (
{
closed = 1;
nodes = (
(-66,-127,o),
(-13,-80,o),
(69,-80,cs),
(119,-80,o),
(160,-100,o),
(183,-155,c),
(246,-91,l),
(212,-35,o),
(158,-7,o),
(94,-7,cs),
(-18,-7,o),
(-91,-100,o),
(-122,-146,c),
(-99,-170,l)
);
}
);
width = 270;
}
);
subCategory = Spacing;
unicode = 6451;
},
{
category = Mark;
glyphname = uni1934;
lastChange = "2021-12-16 21:25:17 +0000";
layers = (
{
layerId = UUID0;
shapes = (
{
closed = 1;
nodes = (
(373,208,o),
(452,256,o),
(452,350,cs),
(452,421,o),
(400,465,o),
(336,465,cs),
(254,465,o),
(211,414,o),
(211,354,cs),
(211,328,o),
(219,302,o),
(232,281,c),
(29,301,o),
(46,497,o),
(-9,583,c),
(-35,535,l),
(-1,492,o),
(-23,208,o),
(274,208,cs)
);
},
{
closed = 1;
nodes = (
(289,291,o),
(261,319,o),
(261,354,cs),
(261,389,o),
(289,417,o),
(324,417,cs),
(359,417,o),
(388,389,o),
(388,354,cs),
(388,319,o),
(359,291,o),
(324,291,cs)
);
}
);
width = 477;
}
);
subCategory = Spacing;
unicode = 6452;
},
{
category = Mark;
glyphname = uni1935;
lastChange = "2021-12-16 21:25:36 +0000";
layers = (
{
layerId = UUID0;
shapes = (
{
closed = 1;
nodes = (
(441,20,l),
(441,581,l),
(360,557,l),
(360,270,l),
(313,237,o),
(256,227,o),
(216,227,cs),
(157,227,o),
(126,260,o),
(126,335,cs),
(126,407,ls),
(126,527,o),
(107,576,o),
(8,576,cs),
(-15,576,l),
(-39,504,l),
(0,504,ls),
(22,504,o),
(44,490,o),
(44,427,cs),
(44,325,ls),
(44,238,o),
(83,179,o),
(192,179,cs),
(254,179,o),
(328,204,o),
(360,228,c),
(360,-5,l)
);
}
);
width = 514;
}
);
subCategory = Spacing;
unicode = 6453;
},
{
category = Mark;
glyphname = uni1936;
lastChange = "2021-12-16 21:26:06 +0000";
layers = (
{
layerId = UUID0;
shapes = (
{
closed = 1;
nodes = (
(276,20,l),
(276,261,l),
(354,274,o),
(454,330,o),
(454,453,cs),
(454,559,o),
(397,584,o),
(350,584,cs),
(278,584,o),
(196,494,o),
(196,376,cs),
(196,333,l),
(129,338,o),
(92,358,o),
(92,416,cs),
(92,435,ls),
(92,525,o),
(81,576,o),
(8,576,cs),
(-15,576,l),
(-39,504,l),
(0,504,ls),
(22,504,o),
(44,492,o),
(44,440,cs),
(44,417,ls),
(44,303,o),
(100,267,o),
(196,260,c),
(196,-5,l)
);
},
{
closed = 1;
nodes = (
(276,431,l),
(276,498,o),
(304,512,o),
(323,512,cs),
(347,512,o),
(372,490,o),
(372,448,cs),
(372,373,o),
(325,342,o),
(276,333,c)
);
}
);
width = 503;
}
);
subCategory = Spacing;
unicode = 6454;
},
{
category = Mark;
glyphname = uni1937;
lastChange = "2021-12-16 21:26:43 +0000";
layers = (
{
layerId = UUID0;
shapes = (
{
closed = 1;
nodes = (
(111,-203,l),
(-37,10,l),
(-98,-37,l),
(68,-235,l)
);
}
);
width = 111;
}
);
subCategory = Spacing;
unicode = 6455;
},
{
category = Mark;
glyphname = uni1938;
lastChange = "2021-12-16 21:26:43 +0000";
layers = (
{
layerId = UUID0;
shapes = (
{
closed = 1;
nodes = (
(219,252,o),
(299,336,o),
(299,454,cs),
(299,581,l),
(219,557,l),
(219,414,ls),
(219,323,o),
(187,300,o),
(143,300,cs),
(100,300,o),
(80,324,o),
(80,415,cs),
(80,581,l),
(0,557,l),
(0,382,ls),
(0,288,o),
(50,252,o),
(134,252,cs)
);
}
);
width = 324;
}
);
subCategory = Spacing;
unicode = 6456;
},
{
category = Mark;
glyphname = uni1939;
lastChange = "2021-02-27 04:55:41 +0000";
layers = (
{
layerId = UUID0;
shapes = (
{
closed = 1;
nodes = (
(111,-37,l),
(50,10,l),
(-98,-203,l),
(-55,-235,l)
);
}
);
width = 111;
}
);
subCategory = Nonspacing;
unicode = 6457;
},
{
category = Mark;
glyphname = uni193A;
lastChange = "2021-02-27 04:55:41 +0000";
layers = (
{
anchors = (
{
name = _Anchor4;
pos = (-147,732);
},
{
name = _Anchor8;
pos = (-147,732);
}
);
layerId = UUID0;
shapes = (
{
closed = 1;
nodes = (
(-24,732,o),
(0,757,o),
(0,787,cs),
(0,816,o),
(-24,841,o),
(-54,841,cs),
(-84,841,o),
(-108,816,o),
(-108,787,cs),
(-108,757,o),
(-84,732,o),
(-54,732,cs)
);
},
{
closed = 1;
nodes = (
(-202,732,o),
(-178,757,o),
(-178,787,cs),
(-178,816,o),
(-202,841,o),
(-232,841,cs),
(-262,841,o),
(-286,816,o),
(-286,787,cs),
(-286,757,o),
(-262,732,o),
(-232,732,cs)
);
}
);
width = 0;
}
);
subCategory = Nonspacing;
unicode = 6458;
},
{
category = Mark;
glyphname = uni193B;
lastChange = "2024-09-11 14:59:54 +0000";
layers = (
{
anchors = (
{
name = Anchor6;
pos = (-299,-186);
},
{
name = _Anchor6;
pos = (-298,0);
}
);
layerId = UUID0;
shapes = (
{
closed = 1;
nodes = (
(-49,-148,l),
(-49,-85,l),
(-567,-85,l),
(-567,-148,l)
);
}
);
width = 0;
}
);
subCategory = Nonspacing;
unicode = 6459;
},
{
glyphname = uni1940;
lastChange = "2021-02-27 04:55:41 +0000";
layers = (
{
layerId = UUID0;
shapes = (
{
closed = 1;
nodes = (
(409,-7,o),
(511,68,o),
(511,176,cs),
(511,226,o),
(477,299,o),
(387,299,cs),
(311,299,o),
(263,238,o),
(263,171,cs),
(263,130,o),
(287,93,o),
(318,67,c),
(304,65,o),
(288,65,o),
(272,65,cs),
(208,65,o),
(121,106,o),
(121,250,cs),
(121,364,o),
(167,467,o),
(293,555,c),
(271,583,l),
(108,477,o),
(39,348,o),
(39,236,cs),
(39,77,o),
(145,-7,o),
(268,-7,cs)
);
},
{
closed = 1;
nodes = (
(348,105,o),
(321,135,o),
(321,171,cs),
(321,200,o),
(340,227,o),
(376,227,cs),
(416,227,o),
(429,199,o),
(429,175,cs),
(429,129,o),
(411,102,o),
(383,86,c)
);
}
);
width = 550;
}
);
unicode = 6464;
},
{
glyphname = uni1944;
lastChange = "2021-02-27 04:55:41 +0000";
layers = (
{
layerId = UUID0;
shapes = (
{
closed = 1;
nodes = (
(352,34,l),
(352,411,ls),
(352,555,o),
(306,654,o),
(184,654,cs),
(98,654,o),
(59,592,o),
(59,536,cs),
(59,499,o),
(71,460,o),
(111,430,c),
(140,473,l),
(125,490,o),
(111,505,o),
(111,537,cs),
(111,598,o),
(164,606,o),
(179,606,cs),
(271,606,o),
(272,495,o),
(272,417,cs),
(272,0,l)
);
},
{
closed = 1;
nodes = (
(339,-163,o),
(362,-137,o),
(362,-105,cs),
(362,-74,o),
(339,-49,o),
(312,-49,cs),
(284,-49,o),
(262,-74,o),
(262,-105,cs),
(262,-137,o),
(284,-163,o),
(312,-163,cs)
);
}
);
width = 440;
}
);
unicode = 6468;
},
{
glyphname = uni1945;
lastChange = "2021-02-27 04:55:41 +0000";
layers = (
{
layerId = UUID0;
shapes = (
{
closed = 1;
nodes = (
(242,34,l),
(242,354,ls),
(242,487,o),
(249,606,o),
(320,606,cs),
(356,606,o),
(379,576,o),
(379,542,cs),
(379,522,o),
(371,502,o),
(355,491,c),
(387,451,l),
(414,471,o),
(432,503,o),
(432,541,cs),
(432,604,o),
(389,654,o),
(317,654,cs),
(224,654,o),
(188,596,o),
(177,534,c),
(154,582,o),
(126,618,o),
(81,654,c),
(59,633,l),
(159,540,o),
(162,375,o),
(162,256,cs),
(162,0,l)
);
},
{
closed = 1;
nodes = (
(229,-163,o),
(252,-137,o),
(252,-105,cs),
(252,-74,o),
(229,-49,o),
(202,-49,cs),
(174,-49,o),
(152,-74,o),
(152,-105,cs),
(152,-137,o),
(174,-163,o),
(202,-163,cs)
);
}
);
width = 480;
}
);
unicode = 6469;
},
{
glyphname = uni1946;
lastChange = "2021-02-27 04:55:41 +0000";
layers = (
{
layerId = UUID0;
shapes = (
{
closed = 1;
nodes = (
(396,-7,o),
(510,141,o),
(510,298,cs),
(510,461,o),
(441,583,o),
(285,583,cs),
(165,583,o),
(39,447,o),
(39,268,cs),
(39,104,o),
(118,-7,o),
(265,-7,cs)
);
},
{
closed = 1;
nodes = (
(167,54,o),
(121,161,o),
(121,288,cs),
(121,455,o),
(183,522,o),
(270,522,cs),
(358,522,o),
(428,447,o),
(428,288,cs),
(428,161,o),
(394,54,o),
(280,54,cs)
);
}
);
width = 549;
}
);
unicode = 6470;
},
{
glyphname = uni1947;
lastChange = "2021-02-27 04:55:41 +0000";
layers = (
{
layerId = UUID0;
shapes = (
{
closed = 1;
nodes = (
(403,-7,o),
(460,67,o),
(460,138,cs),
(460,196,o),
(413,256,o),
(339,256,cs),
(273,256,o),
(213,211,o),
(213,125,cs),
(213,95,o),
(224,72,o),
(234,56,c),
(156,88,o),
(144,184,o),
(144,267,cs),
(144,576,l),
(63,542,l),
(63,244,ls),
(63,64,o),
(150,-7,o),
(285,-7,cs)
);
},
{
closed = 1;
nodes = (
(289,57,o),
(263,87,o),
(263,125,cs),
(263,162,o),
(289,192,o),
(322,192,cs),
(354,192,o),
(381,162,o),
(381,125,cs),
(381,87,o),
(354,57,o),
(322,57,cs)
);
}
);
width = 499;
}
);
unicode = 6471;
},
{
glyphname = uni1948;
lastChange = "2021-02-27 04:55:41 +0000";
layers = (
{
layerId = UUID0;
shapes = (
{
closed = 1;
nodes = (
(120,20,l),
(133,113,o),
(162,277,o),
(228,462,c),
(275,298,o),
(334,136,o),
(387,-5,c),
(478,15,l),
(443,89,o),
(345,335,o),
(268,581,c),
(211,520,l),
(127,335,o),
(62,145,o),
(20,-5,c)
);
}
);
width = 497;
}
);
unicode = 6472;
},
{
glyphname = uni1949;
lastChange = "2021-02-27 04:55:41 +0000";
layers = (
{
layerId = UUID0;
shapes = (
{
closed = 1;
nodes = (
(254,-7,o),
(422,71,o),
(422,195,cs),
(422,380,o),
(121,292,o),
(121,436,cs),
(121,468,o),
(141,516,o),
(220,516,cs),
(276,516,o),
(311,497,o),
(333,478,c),
(403,536,l),
(368,566,o),
(320,583,o),
(251,583,cs),
(173,583,o),
(39,504,o),
(39,403,cs),
(39,238,o),
(340,315,o),
(340,175,cs),
(340,99,o),
(298,60,o),
(219,60,cs),
(135,60,o),
(100,103,o),
(81,126,c),
(46,42,l),
(82,10,o),
(141,-7,o),
(188,-7,cs)
);
}
);
width = 461;
}
);
unicode = 6473;
},
{
glyphname = uni194A;
lastChange = "2021-02-27 04:55:41 +0000";
layers = (
{
layerId = UUID0;
shapes = (
{
closed = 1;
nodes = (
(91,0,l),
(140,80,o),
(192,161,o),
(246,242,c),
(320,138,o),
(374,49,o),
(407,-5,c),
(480,51,l),
(441,112,o),
(372,214,o),
(296,318,c),
(354,404,o),
(414,489,o),
(474,573,c),
(468,580,l),
(404,576,l),
(359,500,o),
(314,428,o),
(268,357,c),
(207,440,o),
(143,521,o),
(90,581,c),
(20,525,l),
(96,440,o),
(162,356,o),
(218,280,c),
(154,183,o),
(89,90,o),
(23,1,c),
(26,-5,l)
);
}
);
width = 500;
}
);
unicode = 6474;
},
{
glyphname = uni194B;
lastChange = "2021-02-27 04:55:41 +0000";
layers = (
{
layerId = UUID0;
shapes = (
{
closed = 1;
nodes = (
(236,518,o),
(229,498,o),
(229,469,cs),
(229,413,o),
(264,368,o),
(330,368,cs),
(406,368,o),
(437,427,o),
(437,473,cs),
(437,526,o),
(402,583,o),
(310,583,cs),
(210,583,o),
(39,456,o),
(39,260,cs),
(39,71,o),
(155,-7,o),
(280,-7,cs),
(390,-7,o),
(448,63,o),
(448,116,cs),
(448,164,o),
(419,213,o),
(353,213,cs),
(286,213,o),
(239,171,o),
(239,107,cs),
(239,86,o),
(246,66,o),
(253,55,c),
(162,89,o),
(121,149,o),
(121,274,cs),
(121,381,o),
(150,482,o),
(243,529,c)
);
},
{
closed = 1;
nodes = (
(299,61,o),
(289,82,o),
(289,105,cs),
(289,140,o),
(309,155,o),
(333,155,cs),
(358,155,o),
(378,145,o),
(378,110,cs),
(378,86,o),
(354,57,o),
(313,57,c)
);
},
{
closed = 1;
nodes = (
(344,524,o),
(368,495,o),
(368,471,cs),
(368,437,o),
(348,426,o),
(324,426,cs),
(299,426,o),
(279,444,o),
(279,479,cs),
(279,502,o),
(289,520,o),
(304,524,c)
);
}
);
width = 487;
}
);
unicode = 6475;
},
{
glyphname = uni194C;
lastChange = "2021-02-27 04:55:41 +0000";
layers = (
{
layerId = UUID0;
shapes = (
{
closed = 1;
nodes = (
(337,-39,l),
(320,-9,o),
(301,35,o),
(288,84,c),
(382,89,o),
(453,135,o),
(453,220,cs),
(453,277,o),
(414,318,o),
(347,318,cs),
(275,318,o),
(214,256,o),
(214,192,cs),
(214,176,o),
(214,160,o),
(216,144,c),
(156,170,o),
(121,239,o),
(121,326,cs),
(121,452,o),
(186,504,o),
(243,504,cs),
(386,504,l),
(411,576,l),
(332,576,ls),
(156,576,o),
(39,480,o),
(39,317,cs),
(39,194,o),
(115,107,o),
(224,88,c),
(236,19,o),
(257,-43,o),
(269,-64,c)
);
},
{
closed = 1;
nodes = (
(273,154,o),
(271,177,o),
(271,199,cs),
(271,242,o),
(295,270,o),
(327,270,cs),
(359,270,o),
(381,250,o),
(381,209,cs),
(381,182,o),
(372,133,o),
(277,132,c)
);
}
);
width = 492;
}
);
unicode = 6476;
},
{
glyphname = uni194D;
lastChange = "2021-02-27 04:55:41 +0000";
layers = (
{
layerId = UUID0;
shapes = (
{
closed = 1;
nodes = (
(284,-7,o),
(452,72,o),
(452,170,cs),
(452,252,o),
(371,290,o),
(291,326,c),
(368,384,o),
(443,445,o),
(453,513,c),
(375,491,l),
(354,439,o),
(306,390,o),
(253,344,c),
(192,374,o),
(141,407,o),
(141,465,cs),
(141,497,o),
(166,541,o),
(245,541,cs),
(251,541,o),
(257,541,o),
(263,540,c),
(308,584,l),
(299,583,o),
(291,583,o),
(281,583,cs),
(203,583,o),
(59,533,o),
(59,433,cs),
(59,360,o),
(118,320,o),
(185,288,c),
(108,226,o),
(39,169,o),
(39,118,cs),
(39,34,o),
(117,-7,o),
(217,-7,cs)
);
},
{
closed = 1;
nodes = (
(192,60,o),
(121,70,o),
(121,139,cs),
(121,184,o),
(165,227,o),
(220,271,c),
(296,236,o),
(370,208,o),
(370,150,cs),
(370,98,o),
(328,60,o),
(249,60,cs)
);
}
);
width = 492;
}
);
unicode = 6477;
},
{
glyphname = uni194E;
lastChange = "2021-02-27 04:55:41 +0000";
layers = (
{
layerId = UUID0;
shapes = (
{
closed = 1;
nodes = (
(286,56,l),
(370,241,o),
(435,431,o),
(478,581,c),
(377,557,l),
(364,463,o),
(335,299,o),
(270,113,c),
(222,278,o),
(163,439,o),
(110,581,c),
(20,562,l),
(54,487,o),
(152,241,o),
(229,-5,c)
);
}
);
width = 497;
}
);
unicode = 6478;
},
{
glyphname = uni194F;
lastChange = "2021-02-27 04:55:41 +0000";
layers = (
{
layerId = UUID0;
shapes = (
{
closed = 1;
nodes = (
(330,15,l),
(350,148,o),
(404,352,o),
(482,576,c),
(102,576,l),
(29,504,l),
(57,438,o),
(96,334,o),
(138,214,c),
(221,261,l),
(242,334,o),
(275,424,o),
(303,504,c),
(416,504,l),
(335,323,o),
(272,141,o),
(230,-5,c)
);
},
{
closed = 1;
nodes = (
(164,387,o),
(143,447,o),
(121,504,c),
(260,504,l),
(233,444,o),
(208,384,o),
(185,326,c)
);
}
);
width = 492;
}
);
unicode = 6479;
},
{
glyphname = doubledanda;
lastChange = "2021-02-27 04:55:41 +0000";
layers = (
{
layerId = UUID0;
shapes = (
{
closed = 1;
nodes = (
(227,20,l),
(227,591,l),
(146,557,l),
(146,-15,l)
);
},
{
closed = 1;
nodes = (
(393,20,l),
(393,591,l),
(313,557,l),
(313,-15,l)
);
}
);
width = 539;
}
);
unicode = 2405;
},
{
glyphname = uni1902;
lastChange = "2021-02-27 04:55:41 +0000";
layers = (
{
anchors = (
{
name = Anchor2;
pos = (390,644);
},
{
name = Anchor3;
pos = (673,498);
},
{
name = Anchor4;
pos = (429,732);
},
{
name = Anchor6;
pos = (341,0);
}
);
layerId = UUID0;
shapes = (
{
closed = 1;
nodes = (
(313,-7,o),
(377,47,o),
(417,93,c),
(438,32,o),
(481,-7,o),
(537,-7,cs),
(606,-7,o),
(642,42,o),
(671,82,c),
(649,104,l),
(618,68,o),
(599,65,o),
(574,65,cs),
(525,65,o),
(483,99,o),
(483,203,cs),
(483,359,o),
(555,440,o),
(617,504,c),
(642,576,l),
(201,576,l),
(115,489,o),
(39,376,o),
(39,230,cs),
(39,72,o),
(120,-7,o),
(227,-7,cs)
);
},
{
closed = 1;
nodes = (
(178,65,o),
(121,111,o),
(121,251,cs),
(121,334,o),
(149,430,o),
(206,504,c),
(564,504,l),
(466,416,o),
(401,292,o),
(401,189,cs),
(401,171,o),
(403,154,o),
(405,137,c),
(372,100,o),
(323,65,o),
(252,65,cs)
);
}
);
width = 701;
}
);
unicode = 6402;
},
{
glyphname = uni1900;
lastChange = "2021-02-27 04:55:41 +0000";
layers = (
{
anchors = (
{
name = Anchor2;
pos = (371,644);
},
{
name = Anchor3;
pos = (629,498);
},
{
name = Anchor4;
pos = (322,732);
},
{
name = Anchor6;
pos = (314,0);
}
);
layerId = UUID0;
shapes = (
{
closed = 1;
nodes = (
(110,28,o),
(217,63,o),
(327,63,cs),
(406,63,o),
(475,51,o),
(526,0,c),
(601,34,l),
(601,576,l),
(49,576,l),
(24,504,l),
(254,504,l),
(47,271,l),
(239,271,l),
(5,15,l),
(14,-4,l)
);
},
{
closed = 1;
nodes = (
(484,114,o),
(415,135,o),
(336,135,cs),
(274,135,o),
(197,121,o),
(138,90,c),
(351,323,l),
(155,323,l),
(320,504,l),
(521,504,l),
(521,89,l)
);
}
);
width = 674;
}
);
unicode = 6400;
},
{
glyphname = uni1901;
lastChange = "2021-02-27 04:55:41 +0000";
layers = (
{
anchors = (
{
name = Anchor2;
pos = (332,644);
},
{
name = Anchor3;
pos = (585,498);
},
{
name = Anchor4;
pos = (322,732);
},
{
name = Anchor6;
pos = (302,0);
}
);
layerId = UUID0;
shapes = (
{
closed = 1;
nodes = (
(542,0,l),
(566,72,l),
(158,72,l),
(251,215,o),
(421,416,o),
(556,542,c),
(563,576,l),
(63,576,l),
(39,504,l),
(452,504,l),
(303,370,o),
(188,244,o),
(60,72,c),
(43,0,l)
);
}
);
width = 605;
}
);
unicode = 6401;
},
{
category = Mark;
glyphname = uni192A1922;
lastChange = "2024-09-11 15:02:19 +0000";
layers = (
{
anchors = (
{
name = Anchor6;
pos = (-112,-280);
},
{
name = _Anchor6;
pos = (-69,0);
}
);
layerId = UUID0;
shapes = (
{
closed = 1;
nodes = (
(-238,-124,o),
(-211,-107,o),
(-187,-91,cs),
(-164,-75,o),
(-142,-59,o),
(-132,-50,c),
(-124,-75,o),
(-100,-98,o),
(-72,-117,cs),
(-44,-136,o),
(-12,-151,o),
(11,-159,c),
(51,-92,l),
(26,-85,o),
(-7,-74,o),
(-36,-57,cs),
(-64,-40,o),
(-88,-17,o),
(-92,14,c),
(-112,23,l),
(-138,-5,o),
(-170,-31,o),
(-199,-51,cs),
(-229,-71,o),
(-256,-87,o),
(-272,-95,c),
(-254,-132,l)
);
},
{
closed = 1;
nodes = (
(121,-43,o),
(99,-96,o),
(66,-138,cs),
(34,-179,o),
(-9,-209,o),
(-72,-217,c),
(-70,-211,o),
(-69,-204,o),
(-69,-198,cs),
(-69,-156,o),
(-104,-111,o),
(-151,-111,cs),
(-203,-111,o),
(-240,-148,o),
(-240,-198,cs),
(-240,-256,o),
(-185,-293,o),
(-110,-293,cs),
(-9,-293,o),
(67,-230,o),
(119,-135,cs),
(145,-88,o),
(163,-38,o),
(176,15,c),
(140,11,l)
);
},
{
closed = 1;
nodes = (
(-124,-211,o),
(-137,-225,o),
(-155,-225,cs),
(-172,-225,o),
(-186,-211,o),
(-186,-194,cs),
(-186,-177,o),
(-172,-163,o),
(-155,-163,cs),
(-137,-163,o),
(-124,-177,o),
(-124,-194,cs)
);
}
);
width = 0;
}
);
note = uni192A1922;
subCategory = Nonspacing;
},
